<mxfile host="Electron" modified="2024-07-21T12:31:00.298Z" agent="Mozilla/5.0 (Windows NT 10.0; Win64; x64) AppleWebKit/537.36 (KHTML, like Gecko) draw.io/24.0.4 Chrome/120.0.6099.109 Electron/28.1.0 Safari/537.36" etag="jtOMGKac5nAyCleyGSKK" version="24.0.4" type="device">
  <diagram name="第 1 页" id="DOi9r88yPGBORYD2cIxo">
    <mxGraphModel dx="1195" dy="703" grid="1" gridSize="10" guides="1" tooltips="1" connect="0" arrows="1" fold="1" page="1" pageScale="1" pageWidth="827" pageHeight="1169" math="0" shadow="0">
      <root>
        <mxCell id="0" />
        <mxCell id="1" parent="0" />
        <mxCell id="sksoZ3_4S2njUODhyMn4-71" value="" style="rounded=0;whiteSpace=wrap;html=1;fillColor=none;dashed=1;strokeColor=#66FFFF;" vertex="1" parent="1">
          <mxGeometry x="300" y="450" width="360" height="150" as="geometry" />
        </mxCell>
        <mxCell id="sksoZ3_4S2njUODhyMn4-1" value="LakeContext" style="swimlane;fontStyle=0;childLayout=stackLayout;horizontal=1;startSize=30;horizontalStack=0;resizeParent=1;resizeParentMax=0;resizeLast=0;collapsible=1;marginBottom=0;whiteSpace=wrap;html=1;" vertex="1" parent="1">
          <mxGeometry x="100" y="450" width="140" height="240" as="geometry">
            <mxRectangle x="160" y="390" width="110" height="30" as="alternateBounds" />
          </mxGeometry>
        </mxCell>
        <mxCell id="sksoZ3_4S2njUODhyMn4-4" value="options" style="text;strokeColor=none;fillColor=none;align=left;verticalAlign=middle;spacingLeft=4;spacingRight=4;overflow=hidden;points=[[0,0.5],[1,0.5]];portConstraint=eastwest;rotatable=0;whiteSpace=wrap;html=1;" vertex="1" parent="sksoZ3_4S2njUODhyMn4-1">
          <mxGeometry y="30" width="140" height="30" as="geometry" />
        </mxCell>
        <mxCell id="sksoZ3_4S2njUODhyMn4-5" value="converter_classes" style="text;strokeColor=none;fillColor=none;align=left;verticalAlign=middle;spacingLeft=4;spacingRight=4;overflow=hidden;points=[[0,0.5],[1,0.5]];portConstraint=eastwest;rotatable=0;whiteSpace=wrap;html=1;" vertex="1" parent="sksoZ3_4S2njUODhyMn4-1">
          <mxGeometry y="60" width="140" height="30" as="geometry" />
        </mxCell>
        <mxCell id="sksoZ3_4S2njUODhyMn4-6" value="converter_class" style="text;strokeColor=none;fillColor=none;align=left;verticalAlign=middle;spacingLeft=4;spacingRight=4;overflow=hidden;points=[[0,0.5],[1,0.5]];portConstraint=eastwest;rotatable=0;whiteSpace=wrap;html=1;" vertex="1" parent="sksoZ3_4S2njUODhyMn4-1">
          <mxGeometry y="90" width="140" height="30" as="geometry" />
        </mxCell>
        <mxCell id="sksoZ3_4S2njUODhyMn4-7" value="method: set_options" style="text;strokeColor=none;fillColor=none;align=left;verticalAlign=middle;spacingLeft=4;spacingRight=4;overflow=hidden;points=[[0,0.5],[1,0.5]];portConstraint=eastwest;rotatable=0;whiteSpace=wrap;html=1;" vertex="1" parent="sksoZ3_4S2njUODhyMn4-1">
          <mxGeometry y="120" width="140" height="30" as="geometry" />
        </mxCell>
        <mxCell id="sksoZ3_4S2njUODhyMn4-8" value="method: pick" style="text;strokeColor=none;fillColor=none;align=left;verticalAlign=middle;spacingLeft=4;spacingRight=4;overflow=hidden;points=[[0,0.5],[1,0.5]];portConstraint=eastwest;rotatable=0;whiteSpace=wrap;html=1;" vertex="1" parent="sksoZ3_4S2njUODhyMn4-1">
          <mxGeometry y="150" width="140" height="30" as="geometry" />
        </mxCell>
        <mxCell id="sksoZ3_4S2njUODhyMn4-9" value="method: convert ..." style="text;strokeColor=none;fillColor=none;align=left;verticalAlign=middle;spacingLeft=4;spacingRight=4;overflow=hidden;points=[[0,0.5],[1,0.5]];portConstraint=eastwest;rotatable=0;whiteSpace=wrap;html=1;" vertex="1" parent="sksoZ3_4S2njUODhyMn4-1">
          <mxGeometry y="180" width="140" height="30" as="geometry" />
        </mxCell>
        <mxCell id="sksoZ3_4S2njUODhyMn4-10" value="method: register" style="text;strokeColor=none;fillColor=none;align=left;verticalAlign=middle;spacingLeft=4;spacingRight=4;overflow=hidden;points=[[0,0.5],[1,0.5]];portConstraint=eastwest;rotatable=0;whiteSpace=wrap;html=1;" vertex="1" parent="sksoZ3_4S2njUODhyMn4-1">
          <mxGeometry y="210" width="140" height="30" as="geometry" />
        </mxCell>
        <mxCell id="sksoZ3_4S2njUODhyMn4-24" value="LakeBaseContext" style="swimlane;fontStyle=0;childLayout=stackLayout;horizontal=1;startSize=30;horizontalStack=0;resizeParent=1;resizeParentMax=0;resizeLast=0;collapsible=1;marginBottom=0;whiteSpace=wrap;html=1;" vertex="1" parent="1">
          <mxGeometry x="100" y="350" width="140" height="60" as="geometry">
            <mxRectangle x="160" y="390" width="110" height="30" as="alternateBounds" />
          </mxGeometry>
        </mxCell>
        <mxCell id="sksoZ3_4S2njUODhyMn4-32" value="Singleton pattern" style="text;strokeColor=none;fillColor=none;align=left;verticalAlign=middle;spacingLeft=4;spacingRight=4;overflow=hidden;points=[[0,0.5],[1,0.5]];portConstraint=eastwest;rotatable=0;whiteSpace=wrap;html=1;" vertex="1" parent="sksoZ3_4S2njUODhyMn4-24">
          <mxGeometry y="30" width="140" height="30" as="geometry" />
        </mxCell>
        <mxCell id="sksoZ3_4S2njUODhyMn4-39" value="&lt;span style=&quot;background-color: initial;&quot;&gt;LakeBaseConverter&lt;/span&gt;" style="swimlane;fontStyle=0;childLayout=stackLayout;horizontal=1;startSize=30;horizontalStack=0;resizeParent=1;resizeParentMax=0;resizeLast=0;collapsible=1;marginBottom=0;whiteSpace=wrap;html=1;" vertex="1" parent="1">
          <mxGeometry x="510" y="300" width="140" height="120" as="geometry">
            <mxRectangle x="160" y="390" width="110" height="30" as="alternateBounds" />
          </mxGeometry>
        </mxCell>
        <mxCell id="sksoZ3_4S2njUODhyMn4-44" value="Strategy Pattern" style="text;strokeColor=none;fillColor=none;align=left;verticalAlign=middle;spacingLeft=4;spacingRight=4;overflow=hidden;points=[[0,0.5],[1,0.5]];portConstraint=eastwest;rotatable=0;whiteSpace=wrap;html=1;" vertex="1" parent="sksoZ3_4S2njUODhyMn4-39">
          <mxGeometry y="30" width="140" height="30" as="geometry" />
        </mxCell>
        <mxCell id="sksoZ3_4S2njUODhyMn4-40" value="raw_html、assets" style="text;strokeColor=none;fillColor=none;align=left;verticalAlign=middle;spacingLeft=4;spacingRight=4;overflow=hidden;points=[[0,0.5],[1,0.5]];portConstraint=eastwest;rotatable=0;whiteSpace=wrap;html=1;" vertex="1" parent="sksoZ3_4S2njUODhyMn4-39">
          <mxGeometry y="60" width="140" height="30" as="geometry" />
        </mxCell>
        <mxCell id="sksoZ3_4S2njUODhyMn4-42" value="method: convert" style="text;strokeColor=none;fillColor=none;align=left;verticalAlign=middle;spacingLeft=4;spacingRight=4;overflow=hidden;points=[[0,0.5],[1,0.5]];portConstraint=eastwest;rotatable=0;whiteSpace=wrap;html=1;" vertex="1" parent="sksoZ3_4S2njUODhyMn4-39">
          <mxGeometry y="90" width="140" height="30" as="geometry" />
        </mxCell>
        <mxCell id="sksoZ3_4S2njUODhyMn4-45" value="&lt;span style=&quot;background-color: initial;&quot;&gt;MarkdownConverter&lt;/span&gt;" style="swimlane;fontStyle=0;childLayout=stackLayout;horizontal=1;startSize=30;horizontalStack=0;resizeParent=1;resizeParentMax=0;resizeLast=0;collapsible=1;marginBottom=0;whiteSpace=wrap;html=1;" vertex="1" parent="1">
          <mxGeometry x="510" y="480" width="140" height="90" as="geometry">
            <mxRectangle x="160" y="390" width="110" height="30" as="alternateBounds" />
          </mxGeometry>
        </mxCell>
        <mxCell id="sksoZ3_4S2njUODhyMn4-49" value="method: convert" style="text;strokeColor=none;fillColor=none;align=left;verticalAlign=middle;spacingLeft=4;spacingRight=4;overflow=hidden;points=[[0,0.5],[1,0.5]];portConstraint=eastwest;rotatable=0;whiteSpace=wrap;html=1;" vertex="1" parent="sksoZ3_4S2njUODhyMn4-45">
          <mxGeometry y="30" width="140" height="30" as="geometry" />
        </mxCell>
        <mxCell id="sksoZ3_4S2njUODhyMn4-50" value="......" style="text;strokeColor=none;fillColor=none;align=left;verticalAlign=middle;spacingLeft=4;spacingRight=4;overflow=hidden;points=[[0,0.5],[1,0.5]];portConstraint=eastwest;rotatable=0;whiteSpace=wrap;html=1;" vertex="1" parent="sksoZ3_4S2njUODhyMn4-45">
          <mxGeometry y="60" width="140" height="30" as="geometry" />
        </mxCell>
        <mxCell id="sksoZ3_4S2njUODhyMn4-51" value="&lt;span style=&quot;background-color: initial;&quot;&gt;PdfConverter&lt;/span&gt;" style="swimlane;fontStyle=0;childLayout=stackLayout;horizontal=1;startSize=30;horizontalStack=0;resizeParent=1;resizeParentMax=0;resizeLast=0;collapsible=1;marginBottom=0;whiteSpace=wrap;html=1;" vertex="1" parent="1">
          <mxGeometry x="520" y="660" width="140" height="90" as="geometry">
            <mxRectangle x="160" y="390" width="110" height="30" as="alternateBounds" />
          </mxGeometry>
        </mxCell>
        <mxCell id="sksoZ3_4S2njUODhyMn4-52" value="method: convert" style="text;strokeColor=none;fillColor=none;align=left;verticalAlign=middle;spacingLeft=4;spacingRight=4;overflow=hidden;points=[[0,0.5],[1,0.5]];portConstraint=eastwest;rotatable=0;whiteSpace=wrap;html=1;" vertex="1" parent="sksoZ3_4S2njUODhyMn4-51">
          <mxGeometry y="30" width="140" height="30" as="geometry" />
        </mxCell>
        <mxCell id="sksoZ3_4S2njUODhyMn4-53" value="......" style="text;strokeColor=none;fillColor=none;align=left;verticalAlign=middle;spacingLeft=4;spacingRight=4;overflow=hidden;points=[[0,0.5],[1,0.5]];portConstraint=eastwest;rotatable=0;whiteSpace=wrap;html=1;" vertex="1" parent="sksoZ3_4S2njUODhyMn4-51">
          <mxGeometry y="60" width="140" height="30" as="geometry" />
        </mxCell>
        <mxCell id="sksoZ3_4S2njUODhyMn4-54" value="&lt;span style=&quot;background-color: initial;&quot;&gt;DocConverter&lt;/span&gt;" style="swimlane;fontStyle=0;childLayout=stackLayout;horizontal=1;startSize=30;horizontalStack=0;resizeParent=1;resizeParentMax=0;resizeLast=0;collapsible=1;marginBottom=0;whiteSpace=wrap;html=1;" vertex="1" parent="1">
          <mxGeometry x="310" y="480" width="140" height="90" as="geometry">
            <mxRectangle x="160" y="390" width="110" height="30" as="alternateBounds" />
          </mxGeometry>
        </mxCell>
        <mxCell id="sksoZ3_4S2njUODhyMn4-55" value="method: convert" style="text;strokeColor=none;fillColor=none;align=left;verticalAlign=middle;spacingLeft=4;spacingRight=4;overflow=hidden;points=[[0,0.5],[1,0.5]];portConstraint=eastwest;rotatable=0;whiteSpace=wrap;html=1;" vertex="1" parent="sksoZ3_4S2njUODhyMn4-54">
          <mxGeometry y="30" width="140" height="30" as="geometry" />
        </mxCell>
        <mxCell id="sksoZ3_4S2njUODhyMn4-56" value="......" style="text;strokeColor=none;fillColor=none;align=left;verticalAlign=middle;spacingLeft=4;spacingRight=4;overflow=hidden;points=[[0,0.5],[1,0.5]];portConstraint=eastwest;rotatable=0;whiteSpace=wrap;html=1;" vertex="1" parent="sksoZ3_4S2njUODhyMn4-54">
          <mxGeometry y="60" width="140" height="30" as="geometry" />
        </mxCell>
        <mxCell id="sksoZ3_4S2njUODhyMn4-57" value="&lt;font style=&quot;font-size: 15px;&quot;&gt;Lake&amp;nbsp;&lt;/font&gt;&lt;span style=&quot;background-color: initial; font-size: 15px;&quot;&gt;Document&lt;/span&gt;" style="rounded=1;whiteSpace=wrap;html=1;fillColor=none;strokeColor=#7F00FF;" vertex="1" parent="1">
          <mxGeometry x="300" y="290" width="174" height="110" as="geometry" />
        </mxCell>
        <mxCell id="sksoZ3_4S2njUODhyMn4-58" style="edgeStyle=orthogonalEdgeStyle;rounded=0;orthogonalLoop=1;jettySize=auto;html=1;entryX=0.5;entryY=0;entryDx=0;entryDy=0;entryPerimeter=0;" edge="1" parent="1" source="sksoZ3_4S2njUODhyMn4-24" target="sksoZ3_4S2njUODhyMn4-1">
          <mxGeometry relative="1" as="geometry" />
        </mxCell>
        <mxCell id="sksoZ3_4S2njUODhyMn4-67" value="" style="endArrow=none;dashed=1;html=1;rounded=0;entryX=0.42;entryY=1.163;entryDx=0;entryDy=0;entryPerimeter=0;exitX=0.519;exitY=-0.03;exitDx=0;exitDy=0;exitPerimeter=0;endFill=0;startArrow=open;startFill=0;" edge="1" parent="1" source="sksoZ3_4S2njUODhyMn4-54" target="sksoZ3_4S2njUODhyMn4-42">
          <mxGeometry width="50" height="50" relative="1" as="geometry">
            <mxPoint x="360" y="420" as="sourcePoint" />
            <mxPoint x="410" y="370" as="targetPoint" />
          </mxGeometry>
        </mxCell>
        <mxCell id="sksoZ3_4S2njUODhyMn4-69" value="" style="endArrow=none;dashed=1;html=1;rounded=0;entryX=0.529;entryY=1.071;entryDx=0;entryDy=0;entryPerimeter=0;exitX=0.543;exitY=-0.022;exitDx=0;exitDy=0;exitPerimeter=0;startArrow=open;startFill=0;" edge="1" parent="1" source="sksoZ3_4S2njUODhyMn4-45" target="sksoZ3_4S2njUODhyMn4-42">
          <mxGeometry width="50" height="50" relative="1" as="geometry">
            <mxPoint x="360" y="420" as="sourcePoint" />
            <mxPoint x="410" y="370" as="targetPoint" />
          </mxGeometry>
        </mxCell>
        <mxCell id="sksoZ3_4S2njUODhyMn4-70" value="Current" style="text;html=1;align=center;verticalAlign=middle;whiteSpace=wrap;rounded=0;fontColor=#CC0000;" vertex="1" parent="1">
          <mxGeometry x="589" y="541" width="60" height="30" as="geometry" />
        </mxCell>
        <mxCell id="sksoZ3_4S2njUODhyMn4-73" style="edgeStyle=orthogonalEdgeStyle;rounded=0;orthogonalLoop=1;jettySize=auto;html=1;entryX=1.014;entryY=0.474;entryDx=0;entryDy=0;entryPerimeter=0;strokeColor=#00FFFF;" edge="1" parent="1" source="sksoZ3_4S2njUODhyMn4-71" target="sksoZ3_4S2njUODhyMn4-5">
          <mxGeometry relative="1" as="geometry" />
        </mxCell>
        <mxCell id="sksoZ3_4S2njUODhyMn4-74" style="edgeStyle=orthogonalEdgeStyle;rounded=0;orthogonalLoop=1;jettySize=auto;html=1;entryX=1.029;entryY=0.577;entryDx=0;entryDy=0;entryPerimeter=0;strokeColor=#CC0000;startArrow=open;startFill=0;endArrow=open;endFill=0;exitX=0.51;exitY=1.037;exitDx=0;exitDy=0;exitPerimeter=0;" edge="1" parent="1" source="sksoZ3_4S2njUODhyMn4-50" target="sksoZ3_4S2njUODhyMn4-6">
          <mxGeometry relative="1" as="geometry">
            <Array as="points">
              <mxPoint x="581" y="620" />
              <mxPoint x="280" y="620" />
              <mxPoint x="280" y="557" />
            </Array>
          </mxGeometry>
        </mxCell>
        <mxCell id="sksoZ3_4S2njUODhyMn4-76" value="Registered converters" style="text;html=1;align=center;verticalAlign=middle;whiteSpace=wrap;rounded=0;fontColor=#00FFFF;" vertex="1" parent="1">
          <mxGeometry x="300" y="570" width="150" height="30" as="geometry" />
        </mxCell>
        <mxCell id="sksoZ3_4S2njUODhyMn4-77" style="edgeStyle=orthogonalEdgeStyle;rounded=0;orthogonalLoop=1;jettySize=auto;html=1;entryX=1;entryY=0.071;entryDx=0;entryDy=0;entryPerimeter=0;fillColor=#6a00ff;strokeColor=#7F00FF;" edge="1" parent="1" source="sksoZ3_4S2njUODhyMn4-57" target="sksoZ3_4S2njUODhyMn4-1">
          <mxGeometry relative="1" as="geometry" />
        </mxCell>
        <mxCell id="sksoZ3_4S2njUODhyMn4-78" value="&lt;span style=&quot;font-size: 15px;&quot;&gt;Target Document&lt;/span&gt;" style="rounded=1;whiteSpace=wrap;html=1;fillColor=none;strokeColor=#00FF00;" vertex="1" parent="1">
          <mxGeometry x="300" y="640" width="174" height="110" as="geometry" />
        </mxCell>
        <mxCell id="sksoZ3_4S2njUODhyMn4-79" style="edgeStyle=orthogonalEdgeStyle;rounded=0;orthogonalLoop=1;jettySize=auto;html=1;entryX=-0.005;entryY=0.511;entryDx=0;entryDy=0;entryPerimeter=0;strokeColor=#00FF00;" edge="1" parent="1" source="sksoZ3_4S2njUODhyMn4-9" target="sksoZ3_4S2njUODhyMn4-78">
          <mxGeometry relative="1" as="geometry" />
        </mxCell>
        <mxCell id="sksoZ3_4S2njUODhyMn4-80" style="edgeStyle=orthogonalEdgeStyle;rounded=0;orthogonalLoop=1;jettySize=auto;html=1;entryX=1;entryY=0.217;entryDx=0;entryDy=0;entryPerimeter=0;endArrow=open;endFill=0;dashed=1;" edge="1" parent="1" source="sksoZ3_4S2njUODhyMn4-44" target="sksoZ3_4S2njUODhyMn4-51">
          <mxGeometry relative="1" as="geometry" />
        </mxCell>
      </root>
    </mxGraphModel>
  </diagram>
</mxfile>
